<?xml version="1.0" encoding="UTF-8" standalone="no"?><svg contentScriptType="application/ecmascript" contentStyleType="text/css" height="552px" preserveAspectRatio="none" style="width:1208px;height:552px;" version="1.1" viewBox="0 0 1208 552" width="1208px" xmlns="http://www.w3.org/2000/svg" xmlns:xlink="http://www.w3.org/1999/xlink" zoomAndPan="magnify"><defs><filter height="300%" id="f18pl38s23ejhm" width="300%" x="-1" y="-1"><feGaussianBlur result="blurOut" stdDeviation="2.0"/><feColorMatrix in="blurOut" result="blurOut2" type="matrix" values="0 0 0 0 0 0 0 0 0 0 0 0 0 0 0 0 0 0 .4 0"/><feOffset dx="4.0" dy="4.0" in="blurOut2" result="blurOut3"/><feBlend in="SourceGraphic" in2="blurOut3" mode="normal"/></filter></defs><g><!--cluster fabric_sdk_go\\pkg\\fabsdk--><polygon fill="#FFFFFF" filter="url(#f18pl38s23ejhm)" points="22,79,220,79,227,99.7383,306,99.7383,306,528.5,22,528.5,22,79" style="stroke: #000000; stroke-width: 1.5;"/><line style="stroke: #000000; stroke-width: 1.5;" x1="22" x2="227" y1="99.7383" y2="99.7383"/><text fill="#000000" font-family="sans-serif" font-size="14" font-weight="bold" lengthAdjust="spacingAndGlyphs" textLength="192" x="26" y="93.6602">fabric_sdk_go\pkg\fabsdk</text><!--cluster fabric_sdk_go\\pkg\\context--><polygon fill="#FFFFFF" filter="url(#f18pl38s23ejhm)" points="330,327,536,327,543,347.7383,668,347.7383,668,540,330,540,330,327" style="stroke: #000000; stroke-width: 1.5;"/><line style="stroke: #000000; stroke-width: 1.5;" x1="330" x2="543" y1="347.7383" y2="347.7383"/><text fill="#000000" font-family="sans-serif" font-size="14" font-weight="bold" lengthAdjust="spacingAndGlyphs" textLength="200" x="334" y="341.6602">fabric_sdk_go\pkg\context</text><!--cluster fabric_sdk_go\\pkg\\common\\providers\\core--><polygon fill="#FFFFFF" filter="url(#f18pl38s23ejhm)" points="692,344.5,1010,344.5,1017,365.2383,1186,365.2383,1186,522.5,692,522.5,692,344.5" style="stroke: #000000; stroke-width: 1.5;"/><line style="stroke: #000000; stroke-width: 1.5;" x1="692" x2="1017" y1="365.2383" y2="365.2383"/><text fill="#000000" font-family="sans-serif" font-size="14" font-weight="bold" lengthAdjust="spacingAndGlyphs" textLength="312" x="696" y="359.1602">fabric_sdk_go\pkg\common\providers\core</text><!--class fabric_sdk_go\\pkg\\fabsdk.FabricSDK--><rect fill="#FEFECE" filter="url(#f18pl38s23ejhm)" height="82.7402" id="fabric_sdk_go\\pkg\\fabsdk.FabricSDK" style="stroke: #A80036; stroke-width: 1.5;" width="180" x="110" y="112"/><ellipse cx="168.75" cy="128" fill="#ADD1B2" rx="11" ry="11" style="stroke: #A80036; stroke-width: 1.0;"/><path d="M171.7188,133.6406 Q171.1406,133.9375 170.5,134.0859 Q169.8594,134.2344 169.1563,134.2344 Q166.6563,134.2344 165.3359,132.5859 Q164.0156,130.9375 164.0156,127.8125 Q164.0156,124.6875 165.3359,123.0313 Q166.6563,121.375 169.1563,121.375 Q169.8594,121.375 170.5078,121.5313 Q171.1563,121.6875 171.7188,121.9844 L171.7188,124.7031 Q171.0938,124.125 170.5,123.8516 Q169.9063,123.5781 169.2813,123.5781 Q167.9375,123.5781 167.25,124.6484 Q166.5625,125.7188 166.5625,127.8125 Q166.5625,129.9063 167.25,130.9766 Q167.9375,132.0469 169.2813,132.0469 Q169.9063,132.0469 170.5,131.7734 Q171.0938,131.5 171.7188,130.9219 L171.7188,133.6406 Z "/><text fill="#000000" font-family="sans-serif" font-size="12" lengthAdjust="spacingAndGlyphs" textLength="54" x="189.25" y="132.5352">FabricSDK</text><line style="stroke: #A80036; stroke-width: 1.5;" x1="111" x2="289" y1="144" y2="144"/><text fill="#000000" font-family="sans-serif" font-size="11" lengthAdjust="spacingAndGlyphs" textLength="72" x="116" y="157.9473">opts options</text><text fill="#000000" font-family="sans-serif" font-size="11" lengthAdjust="spacingAndGlyphs" textLength="156" x="116" y="169.5273">provider *context.Provider</text><text fill="#000000" font-family="sans-serif" font-size="11" lengthAdjust="spacingAndGlyphs" textLength="168" x="116" y="181.1074">cryptoSuite core.CryptoSuite</text><line style="stroke: #A80036; stroke-width: 1.5;" x1="111" x2="289" y1="186.7402" y2="186.7402"/><!--class fabric_sdk_go\\pkg\\fabsdk.options--><rect fill="#FEFECE" filter="url(#f18pl38s23ejhm)" height="140.6406" id="fabric_sdk_go\\pkg\\fabsdk.options" style="stroke: #A80036; stroke-width: 1.5;" width="252" x="38" y="371.5"/><ellipse cx="138.75" cy="387.5" fill="#ADD1B2" rx="11" ry="11" style="stroke: #A80036; stroke-width: 1.0;"/><path d="M141.7188,393.1406 Q141.1406,393.4375 140.5,393.5859 Q139.8594,393.7344 139.1563,393.7344 Q136.6563,393.7344 135.3359,392.0859 Q134.0156,390.4375 134.0156,387.3125 Q134.0156,384.1875 135.3359,382.5313 Q136.6563,380.875 139.1563,380.875 Q139.8594,380.875 140.5078,381.0313 Q141.1563,381.1875 141.7188,381.4844 L141.7188,384.2031 Q141.0938,383.625 140.5,383.3516 Q139.9063,383.0781 139.2813,383.0781 Q137.9375,383.0781 137.25,384.1484 Q136.5625,385.2188 136.5625,387.3125 Q136.5625,389.4063 137.25,390.4766 Q137.9375,391.5469 139.2813,391.5469 Q139.9063,391.5469 140.5,391.2734 Q141.0938,391 141.7188,390.4219 L141.7188,393.1406 Z "/><text fill="#000000" font-family="sans-serif" font-size="12" lengthAdjust="spacingAndGlyphs" textLength="42" x="159.25" y="392.0352">options</text><line style="stroke: #A80036; stroke-width: 1.5;" x1="39" x2="289" y1="403.5" y2="403.5"/><text fill="#000000" font-family="sans-serif" font-size="11" lengthAdjust="spacingAndGlyphs" textLength="186" x="44" y="417.4473">Core sdkApi.CoreProviderFactory</text><text fill="#000000" font-family="sans-serif" font-size="11" lengthAdjust="spacingAndGlyphs" textLength="174" x="44" y="429.0273">MSP sdkApi.MSPProviderFactory</text><text fill="#000000" font-family="sans-serif" font-size="11" lengthAdjust="spacingAndGlyphs" textLength="222" x="44" y="440.6074">Service sdkApi.ServiceProviderFactory</text><text fill="#000000" font-family="sans-serif" font-size="11" lengthAdjust="spacingAndGlyphs" textLength="150" x="44" y="452.1875">Logger api.LoggerProvider</text><text fill="#000000" font-family="sans-serif" font-size="11" lengthAdjust="spacingAndGlyphs" textLength="240" x="44" y="463.7676">CryptoSuiteConfig core.CryptoSuiteConfig</text><text fill="#000000" font-family="sans-serif" font-size="11" lengthAdjust="spacingAndGlyphs" textLength="198" x="44" y="475.3477">endpointConfig fab.EndpointConfig</text><text fill="#000000" font-family="sans-serif" font-size="11" lengthAdjust="spacingAndGlyphs" textLength="198" x="44" y="486.9277">IdentityConfig msp.IdentityConfig</text><text fill="#000000" font-family="sans-serif" font-size="11" lengthAdjust="spacingAndGlyphs" textLength="204" x="44" y="498.5078">ConfigBackend []core.ConfigBackend</text><line style="stroke: #A80036; stroke-width: 1.5;" x1="39" x2="289" y1="504.1406" y2="504.1406"/><!--class fabric_sdk_go\\pkg\\context.Provider--><rect fill="#FEFECE" filter="url(#f18pl38s23ejhm)" height="163.8008" id="fabric_sdk_go\\pkg\\context.Provider" style="stroke: #A80036; stroke-width: 1.5;" width="306" x="346" y="360"/><ellipse cx="470.75" cy="376" fill="#ADD1B2" rx="11" ry="11" style="stroke: #A80036; stroke-width: 1.0;"/><path d="M473.7188,381.6406 Q473.1406,381.9375 472.5,382.0859 Q471.8594,382.2344 471.1563,382.2344 Q468.6563,382.2344 467.3359,380.5859 Q466.0156,378.9375 466.0156,375.8125 Q466.0156,372.6875 467.3359,371.0313 Q468.6563,369.375 471.1563,369.375 Q471.8594,369.375 472.5078,369.5313 Q473.1563,369.6875 473.7188,369.9844 L473.7188,372.7031 Q473.0938,372.125 472.5,371.8516 Q471.9063,371.5781 471.2813,371.5781 Q469.9375,371.5781 469.25,372.6484 Q468.5625,373.7188 468.5625,375.8125 Q468.5625,377.9063 469.25,378.9766 Q469.9375,380.0469 471.2813,380.0469 Q471.9063,380.0469 472.5,379.7734 Q473.0938,379.5 473.7188,378.9219 L473.7188,381.6406 Z "/><text fill="#000000" font-family="sans-serif" font-size="12" lengthAdjust="spacingAndGlyphs" textLength="48" x="491.25" y="380.5352">Provider</text><line style="stroke: #A80036; stroke-width: 1.5;" x1="347" x2="651" y1="392" y2="392"/><text fill="#000000" font-family="sans-serif" font-size="11" lengthAdjust="spacingAndGlyphs" textLength="240" x="352" y="405.9473">cryptoSuiteConfig core.CryptoSuiteConfig</text><text fill="#000000" font-family="sans-serif" font-size="11" lengthAdjust="spacingAndGlyphs" textLength="198" x="352" y="417.5273">endpointConfig fab.EndpointConfig</text><text fill="#000000" font-family="sans-serif" font-size="11" lengthAdjust="spacingAndGlyphs" textLength="198" x="352" y="429.1074">identityConfig msp.IdentityConfig</text><text fill="#000000" font-family="sans-serif" font-size="11" lengthAdjust="spacingAndGlyphs" textLength="138" x="352" y="440.6875">userStore msp.UserStore</text><text fill="#000000" font-family="sans-serif" font-size="11" lengthAdjust="spacingAndGlyphs" textLength="168" x="352" y="452.2676">cryptoSuite core.CryptoSuite</text><text fill="#000000" font-family="sans-serif" font-size="11" lengthAdjust="spacingAndGlyphs" textLength="294" x="352" y="463.8477">localDiscoveryProvider fab.LocalDiscoveryProvider</text><text fill="#000000" font-family="sans-serif" font-size="11" lengthAdjust="spacingAndGlyphs" textLength="204" x="352" y="475.4277">signingManager core.SigningManager</text><text fill="#000000" font-family="sans-serif" font-size="11" lengthAdjust="spacingAndGlyphs" textLength="252" x="352" y="487.0078">idMgmtProvider msp.IdentityManagerProvider</text><text fill="#000000" font-family="sans-serif" font-size="11" lengthAdjust="spacingAndGlyphs" textLength="186" x="352" y="498.5879">infraProvider fab.InfraProvider</text><text fill="#000000" font-family="sans-serif" font-size="11" lengthAdjust="spacingAndGlyphs" textLength="210" x="352" y="510.168">channelProvider fab.ChannelProvider</text><line style="stroke: #A80036; stroke-width: 1.5;" x1="347" x2="651" y1="515.8008" y2="515.8008"/><!--class fabric_sdk_go\\pkg\\common\\providers\\core.CryptoSuite--><rect fill="#FEFECE" filter="url(#f18pl38s23ejhm)" height="129.0605" id="fabric_sdk_go\\pkg\\common\\providers\\core.CryptoSuite" style="stroke: #A80036; stroke-width: 1.5;" width="462" x="708" y="377.5"/><ellipse cx="901.75" cy="393.5" fill="#B4A7E5" rx="11" ry="11" style="stroke: #A80036; stroke-width: 1.0;"/><path d="M897.6719,389.2656 L897.6719,387.1094 L905.0625,387.1094 L905.0625,389.2656 L902.5938,389.2656 L902.5938,397.3438 L905.0625,397.3438 L905.0625,399.5 L897.6719,399.5 L897.6719,397.3438 L900.1406,397.3438 L900.1406,389.2656 L897.6719,389.2656 Z "/><text fill="#000000" font-family="sans-serif" font-size="12" font-style="italic" lengthAdjust="spacingAndGlyphs" textLength="66" x="922.25" y="398.0352">CryptoSuite</text><line style="stroke: #A80036; stroke-width: 1.5;" x1="709" x2="1169" y1="409.5" y2="409.5"/><line style="stroke: #A80036; stroke-width: 1.5;" x1="709" x2="1169" y1="417.5" y2="417.5"/><text fill="#000000" font-family="sans-serif" font-size="11" lengthAdjust="spacingAndGlyphs" textLength="240" x="714" y="431.4473">KeyGen(opts KeyGenOpts)(k Key,err error)</text><text fill="#000000" font-family="sans-serif" font-size="11" lengthAdjust="spacingAndGlyphs" textLength="390" x="714" y="443.0273">KeyImport(raw interface  { },opts KeyImportOpts)(k Key,err error)</text><text fill="#000000" font-family="sans-serif" font-size="11" lengthAdjust="spacingAndGlyphs" textLength="210" x="714" y="454.6074">GetKey(ski []byte)(k Key,err error)</text><text fill="#000000" font-family="sans-serif" font-size="11" lengthAdjust="spacingAndGlyphs" textLength="318" x="714" y="466.1875">Hash(msg []byte,opts HashOpts)(hash []byte,err error)</text><text fill="#000000" font-family="sans-serif" font-size="11" lengthAdjust="spacingAndGlyphs" textLength="270" x="714" y="477.7676">GetHash(opts HashOpts)(h hash.Hash,err error)</text><text fill="#000000" font-family="sans-serif" font-size="11" lengthAdjust="spacingAndGlyphs" textLength="414" x="714" y="489.3477">Sign(k Key,digest []byte,opts SignerOpts)(signature []byte,err error)</text><text fill="#000000" font-family="sans-serif" font-size="11" lengthAdjust="spacingAndGlyphs" textLength="450" x="714" y="500.9277">Verify(k Key,signature,digest []byte,opts SignerOpts)(valid bool,err error)</text><path d="M165,8 L165,31.6855 A0,0 0 0 0 165,31.6855 L196,31.6855 L200,111.796 L204,31.6855 L235,31.6855 A0,0 0 0 0 235,31.6855 L235,18 L225,8 L165,8 A0,0 0 0 0 165,8 " fill="#FBFB77" filter="url(#f18pl38s23ejhm)" style="stroke: #A80036; stroke-width: 1.0;"/><path d="M225,8 L225,18 L235,18 L225,8 " fill="#FBFB77" style="stroke: #A80036; stroke-width: 1.0;"/><text fill="#000000" font-family="sans-serif" font-size="13" lengthAdjust="spacingAndGlyphs" textLength="49" x="171" y="24.7559">layper 0</text><path d="M322,256 L322,279.6855 A0,0 0 0 0 322,279.6855 L340.633,279.6855 L242.092,371.405 L348.633,279.6855 L392,279.6855 A0,0 0 0 0 392,279.6855 L392,266 L382,256 L322,256 A0,0 0 0 0 322,256 " fill="#FBFB77" filter="url(#f18pl38s23ejhm)" style="stroke: #A80036; stroke-width: 1.0;"/><path d="M382,256 L382,266 L392,266 L382,256 " fill="#FBFB77" style="stroke: #A80036; stroke-width: 1.0;"/><text fill="#000000" font-family="sans-serif" font-size="13" lengthAdjust="spacingAndGlyphs" textLength="49" x="328" y="272.7559">layper 1</text><path d="M427,256 L427,279.6855 A0,0 0 0 0 427,279.6855 L460.371,279.6855 L481.573,359.986 L468.371,279.6855 L497,279.6855 A0,0 0 0 0 497,279.6855 L497,266 L487,256 L427,256 A0,0 0 0 0 427,256 " fill="#FBFB77" filter="url(#f18pl38s23ejhm)" style="stroke: #A80036; stroke-width: 1.0;"/><path d="M487,256 L487,266 L497,266 L487,256 " fill="#FBFB77" style="stroke: #A80036; stroke-width: 1.0;"/><text fill="#000000" font-family="sans-serif" font-size="13" lengthAdjust="spacingAndGlyphs" textLength="49" x="433" y="272.7559">layper 1</text><path d="M904,256 L904,279.6855 A0,0 0 0 0 904,279.6855 L935,279.6855 L939,377.234 L943,279.6855 L974,279.6855 A0,0 0 0 0 974,279.6855 L974,266 L964,256 L904,256 A0,0 0 0 0 904,256 " fill="#FBFB77" filter="url(#f18pl38s23ejhm)" style="stroke: #A80036; stroke-width: 1.0;"/><path d="M964,256 L964,266 L974,266 L964,256 " fill="#FBFB77" style="stroke: #A80036; stroke-width: 1.0;"/><text fill="#000000" font-family="sans-serif" font-size="13" lengthAdjust="spacingAndGlyphs" textLength="49" x="910" y="272.7559">layper 1</text><!--link fabric_sdk_go\\pkg\\fabsdk.FabricSDK to fabric_sdk_go\\pkg\\fabsdk.options--><path d="M194.88,195.244 C189.305,239.618 180.266,311.55 173.405,366.154 " fill="none" id="fabric_sdk_go\\pkg\\fabsdk.FabricSDK-fabric_sdk_go\\pkg\\fabsdk.options" style="stroke: #A80036; stroke-width: 1.0;"/><polygon fill="#A80036" points="172.748,371.382,177.8403,362.9518,173.3722,366.4211,169.9029,361.953,172.748,371.382" style="stroke: #A80036; stroke-width: 1.0;"/><text fill="#000000" font-family="sans-serif" font-size="13" lengthAdjust="spacingAndGlyphs" textLength="24" x="189" y="273.2559">opts</text><!--link fabric_sdk_go\\pkg\\fabsdk.FabricSDK to fabric_sdk_go\\pkg\\context.Provider--><path d="M290.092,156.36 C363.836,163.236 464.003,185.989 515,256 C535.443,284.065 535.853,321.261 529.467,354.936 " fill="none" id="fabric_sdk_go\\pkg\\fabsdk.FabricSDK-fabric_sdk_go\\pkg\\context.Provider" style="stroke: #A80036; stroke-width: 1.0;"/><polygon fill="#A80036" points="528.477,359.878,534.1657,351.8382,529.4584,354.9753,526.3213,350.2679,528.477,359.878" style="stroke: #A80036; stroke-width: 1.0;"/><text fill="#000000" font-family="sans-serif" font-size="13" lengthAdjust="spacingAndGlyphs" textLength="48" x="528" y="273.2559">provider</text><!--link fabric_sdk_go\\pkg\\fabsdk.FabricSDK to fabric_sdk_go\\pkg\\common\\providers\\core.CryptoSuite--><path d="M290.244,170.44 C353.174,182.631 438.667,201.355 512,225 C626.188,261.817 747.43,325.835 831.429,374.647 " fill="none" id="fabric_sdk_go\\pkg\\fabsdk.FabricSDK-fabric_sdk_go\\pkg\\common\\providers\\core.CryptoSuite" style="stroke: #A80036; stroke-width: 1.0;"/><polygon fill="#A80036" points="835.902,377.252,830.1395,369.2649,831.5819,374.7348,826.112,376.1771,835.902,377.252" style="stroke: #A80036; stroke-width: 1.0;"/><text fill="#000000" font-family="sans-serif" font-size="13" lengthAdjust="spacingAndGlyphs" textLength="66" x="648" y="273.2559">cryptoSuite</text><!--
@startuml
namespace fabric_sdk_go\\pkg\\fabsdk {
 class FabricSDK {
  opts options
  provider *context.Provider
  cryptoSuite core.CryptoSuite
} 
}
note top of fabric_sdk_go\\pkg\\fabsdk.FabricSDK: layper 0 
namespace fabric_sdk_go\\pkg\\fabsdk {
 class options {
  Core sdkApi.CoreProviderFactory
  MSP sdkApi.MSPProviderFactory
  Service sdkApi.ServiceProviderFactory
  Logger api.LoggerProvider
  CryptoSuiteConfig core.CryptoSuiteConfig
  endpointConfig fab.EndpointConfig
  IdentityConfig msp.IdentityConfig
  ConfigBackend []core.ConfigBackend
} 
}
note top of fabric_sdk_go\\pkg\\fabsdk.options: layper 1 
namespace fabric_sdk_go\\pkg\\context {
 class Provider {
  cryptoSuiteConfig core.CryptoSuiteConfig
  endpointConfig fab.EndpointConfig
  identityConfig msp.IdentityConfig
  userStore msp.UserStore
  cryptoSuite core.CryptoSuite
  localDiscoveryProvider fab.LocalDiscoveryProvider
  signingManager core.SigningManager
  idMgmtProvider msp.IdentityManagerProvider
  infraProvider fab.InfraProvider
  channelProvider fab.ChannelProvider
} 
}
note top of fabric_sdk_go\\pkg\\context.Provider: layper 1 
namespace fabric_sdk_go\\pkg\\common\\providers\\core {
 interface CryptoSuite  {
  KeyGen(opts KeyGenOpts)(k Key,err error)
  KeyImport(raw interface  { },opts KeyImportOpts)(k Key,err error)
  GetKey(ski []byte)(k Key,err error)
  Hash(msg []byte,opts HashOpts)(hash []byte,err error)
  GetHash(opts HashOpts)(h hash.Hash,err error)
  Sign(k Key,digest []byte,opts SignerOpts)(signature []byte,err error)
  Verify(k Key,signature,digest []byte,opts SignerOpts)(valid bool,err error)
} 
}
note top of fabric_sdk_go\\pkg\\common\\providers\\core.CryptoSuite: layper 1 
fabric_sdk_go\\pkg\\fabsdk.FabricSDK - - -> fabric_sdk_go\\pkg\\fabsdk.options : opts
fabric_sdk_go\\pkg\\fabsdk.FabricSDK - - -> fabric_sdk_go\\pkg\\context.Provider : provider
fabric_sdk_go\\pkg\\fabsdk.FabricSDK - - -> fabric_sdk_go\\pkg\\common\\providers\\core.CryptoSuite : cryptoSuite
@enduml

PlantUML version 1.2018.05(Sun May 06 04:00:17 CST 2018)
(GPL source distribution)
Java Runtime: Java(TM) SE Runtime Environment
JVM: IBM J9 VM
Java Version: 8.0.5.11 - pxa6480sr5fp11-20180326_01(SR5 FP11)
Operating System: Linux
OS Version: 4.4.0-128-generic
Default Encoding: UTF-8
Language: zh
Country: CN
--></g></svg>